<svg width="32" height="32" viewBox="0 0 32 32" fill="none" xmlns="http://www.w3.org/2000/svg">
  <!-- Bed frame -->
  <rect x="4" y="20" width="24" height="8" fill="#8D6E63" stroke="#5D4037" stroke-width="1"/>
  
  <!-- Bed legs -->
  <rect x="6" y="28" width="2" height="2" fill="#5D4037"/>
  <rect x="24" y="28" width="2" height="2" fill="#5D4037"/>
  
  <!-- Mattress -->
  <rect x="5" y="16" width="22" height="6" fill="#FFF3E0" stroke="#FFB74D" stroke-width="1"/>
  
  <!-- Pillow -->
  <rect x="6" y="14" width="8" height="4" fill="#E1F5FE" stroke="#29B6F6" stroke-width="1" rx="2"/>
  
  <!-- Bed headboard -->
  <rect x="4" y="12" width="24" height="4" fill="#8D6E63" stroke="#5D4037" stroke-width="1"/>
  
  <!-- Z's for sleep -->
  <path d="M20 8L22 10L20 12M22 10L20 10M24 6L26 8L24 10M26 8L24 8" stroke="#1976D2" stroke-width="1.5" stroke-linecap="round"/>
  
  <!-- Small decorative elements on headboard -->
  <circle cx="8" cy="14" r="0.5" fill="#5D4037"/>
  <circle cx="12" cy="14" r="0.5" fill="#5D4037"/>
  <circle cx="16" cy="14" r="0.5" fill="#5D4037"/>
  <circle cx="20" cy="14" r="0.5" fill="#5D4037"/>
  <circle cx="24" cy="14" r="0.5" fill="#5D4037"/>
</svg> 